<svg id="Capa_1" enable-background="new 0 0 497 497" height="512" viewBox="0 0 497 497" width="512" xmlns="http://www.w3.org/2000/svg"><circle cx="383.503" cy="113.5" fill="#ffce71" r="113.497"/><circle cx="383.503" cy="113.5" fill="#fc8a3d" r="68.498"/><path d="m349.908 5.078c-46.233 14.355-79.903 57.53-79.903 108.422s33.67 94.067 79.903 108.422c-22.289-31.047-34.903-68.791-34.903-108.422s12.614-77.375 34.903-108.422z" fill="#ffb357"/><g fill="#313d40"><path d="m339.503 101.735c-4.142 0-7.5 3.358-7.5 7.5v10c0 4.142 3.358 7.5 7.5 7.5s7.5-3.358 7.5-7.5v-10c0-4.142-3.358-7.5-7.5-7.5z"/><path d="m427.503 101.735c-4.142 0-7.5 3.358-7.5 7.5v10c0 4.142 3.358 7.5 7.5 7.5s7.5-3.358 7.5-7.5v-10c0-4.142-3.358-7.5-7.5-7.5z"/><path d="m403.238 110.469c-3.737-1.788-8.215-.206-10.001 3.531-1.666 3.484-5.291 5.735-9.234 5.735s-7.568-2.251-9.234-5.735c-1.787-3.737-6.266-5.318-10.001-3.531-3.737 1.787-5.318 6.265-3.531 10.001 4.144 8.666 13.08 14.265 22.766 14.265s18.623-5.599 22.766-14.265c1.787-3.737.206-8.215-3.531-10.001z"/></g><path d="m497 286.998c0-16.569-13.431-30-30-30h-166.995c-16.568 0-30 13.431-30 30 0 16.568 13.431 30 30 30h-20c-16.569 0-30 13.431-30 30 0 16.568 13.431 30 30 30h20c-16.568 0-30 13.431-30 30 0 16.568 13.431 30 30 30-16.568 0-30 13.431-30 30 0 16.568 13.431 30 30 30h166.995c16.569 0 30-13.432 30-30 0-16.569-13.431-30-30-30 16.569 0 30-13.432 30-30 0-16.569-13.431-30-30-30h-20c16.569 0 30-13.432 30-30 0-16.569-13.431-30-30-30h20c16.569 0 30-13.432 30-30z" fill="#ffce71"/><path d="m370.005 376.998h-2.177c-16.115 0-30.386-13.167-30.251-30.327.126-16.321 13.926-29.671 30.247-29.673h2.176c-16.566-16.569-16.565-43.43.002-59.998l.002-.002h-69.376c-16.346 0-30.164 12.816-30.613 29.156-.465 16.954 13.14 30.844 29.988 30.844h-19.376c-16.346 0-30.164 12.816-30.613 29.156-.465 16.954 13.14 30.844 29.988 30.844h20c-16.568 0-30 13.431-30 30 0 16.568 13.431 30 30 30-16.848 0-30.453 13.889-29.988 30.842.448 16.341 14.266 29.158 30.612 29.158h69.374c-16.566-16.569-16.565-43.43.002-59.998l.002-.002c-.002 0-.003 0-.005 0-16.566-16.569-16.565-43.43.002-59.998z" fill="#ffb357"/><path d="m216.995 376.998h-166.995c-16.569 0-30 13.431-30 30 0 16.568 13.431 30 30 30h-20c-16.569 0-30 13.431-30 30 0 16.568 13.431 30 30 30h166.995c16.568 0 30-13.432 30-30 0-16.569-13.431-30-30-30h20c16.569 0 30-13.432 30-30 0-16.569-13.431-30-30-30z" fill="#ffce71"/><path d="m140 376.998h-89.376c-16.346 0-30.164 12.816-30.613 29.156-.465 16.953 13.14 30.844 29.989 30.844h-19.376c-16.346 0-30.164 12.816-30.613 29.156-.465 16.953 13.14 30.844 29.989 30.844h90l-.518-.533c-6.488-20.119-1.098-43.311 20.518-59.467-16.568-16.569-16.568-43.432 0-60z" fill="#ffb357"/><path d="m242.75 168.499h-50.382c-8.284 0-15 6.716-15 15s6.716 15 15 15h14.169l-124.393 124.393c-5.858 5.857-5.858 15.355 0 21.213 2.929 2.929 6.768 4.394 10.606 4.394s7.678-1.465 10.606-4.394l124.394-124.394v14.17c0 8.284 6.716 15 15 15s15-6.716 15-15v-50.383c0-8.284-6.716-14.999-15-14.999z" fill="#00ce8e"/></svg>