<svg id="Capa_1" enable-background="new 0 0 497 497" height="512" viewBox="0 0 497 497" width="512" xmlns="http://www.w3.org/2000/svg"><circle cx="113.498" cy="113.5" fill="#ffce71" r="113.497"/><circle cx="113.498" cy="113.5" fill="#fc8a3d" r="68.498"/><path d="m79.903 5.078c-46.233 14.355-79.903 57.53-79.903 108.422s33.67 94.067 79.903 108.422c-22.289-31.048-34.903-68.792-34.903-108.422s12.614-77.375 34.903-108.422z" fill="#ffb357"/><g fill="#313d40"><path d="m157.497 101.735c4.142 0 7.5 3.358 7.5 7.5v10c0 4.142-3.358 7.5-7.5 7.5s-7.5-3.358-7.5-7.5v-10c0-4.142 3.358-7.5 7.5-7.5z"/><path d="m69.498 101.735c4.142 0 7.5 3.358 7.5 7.5v10c0 4.142-3.358 7.5-7.5 7.5s-7.5-3.358-7.5-7.5v-10c0-4.142 3.357-7.5 7.5-7.5z"/><path d="m132.233 133.999c-3.737 1.788-8.215.206-10.001-3.531-1.666-3.484-5.291-5.735-9.234-5.735s-7.568 2.251-9.234 5.735c-1.787 3.737-6.266 5.318-10.001 3.531-3.737-1.787-5.318-6.265-3.531-10.001 4.144-8.666 13.08-14.265 22.766-14.265s18.623 5.599 22.766 14.265c1.787 3.736.206 8.214-3.531 10.001z"/></g><path d="m0 286.998c0-16.569 13.431-30 30-30h166.995c16.568 0 30 13.431 30 30 0 16.568-13.431 30-30 30h20c16.569 0 30 13.431 30 30 0 16.568-13.431 30-30 30h-20c16.568 0 30 13.431 30 30 0 16.568-13.431 30-30 30 16.568 0 30 13.431 30 30 0 16.568-13.431 30-30 30h-166.995c-16.569 0-30-13.432-30-30 0-16.569 13.431-30 30-30-16.569 0-30-13.432-30-30 0-16.569 13.431-30 30-30h20c-16.569 0-30-13.432-30-30 0-16.569 13.431-30 30-30h-20c-16.569 0-30-13.432-30-30z" fill="#ffce71"/><path d="m140 316.998h-.015c-19.49 0-34.882-17.231-31.914-36.494 1.325-8.604 5.302-16.878 11.929-23.506h-89.376c-16.346 0-30.164 12.816-30.613 29.156-.465 16.953 13.14 30.844 29.989 30.844h20c-16.569 0-30 13.431-30 30 0 16.568 13.431 30 30 30h-19.376c-16.346 0-30.164 12.816-30.613 29.156-.465 16.953 13.14 30.844 29.989 30.844-16.848 0-30.453 13.889-29.988 30.842.448 16.341 14.266 29.158 30.612 29.158h89.376c-16.569-16.568-16.569-43.432 0-60-6.627-6.627-10.604-14.902-11.929-23.506-2.968-19.263 12.424-36.494 31.914-36.494h.015c-16.568-16.569-16.568-43.432 0-60z" fill="#ffb357"/><path d="m467 376.998h-166.995c-16.569 0-30 13.431-30 30 0 16.568 13.431 30 30 30h-20c-16.569 0-30 13.431-30 30 0 16.568 13.431 30 30 30h166.995c16.568 0 30-13.432 30-30 0-16.569-13.431-30-30-30h20c16.569 0 30-13.432 30-30 0-16.569-13.431-30-30-30z" fill="#ffce71"/><path d="m390.005 376.998h-89.376c-16.346 0-30.164 12.816-30.613 29.156-.465 16.954 13.139 30.844 29.988 30.844h-19.376c-16.346 0-30.164 12.816-30.613 29.156-.465 16.954 13.139 30.844 29.988 30.844h90l-.518-.533c-6.488-20.119-1.098-43.311 20.518-59.467-16.566-16.569-16.566-43.432.002-60z" fill="#ffb357"/><path d="m404.25 348.499h-50.382c-8.284 0-15-6.716-15-15s6.716-15 15-15h14.169l-124.394-124.394c-5.858-5.857-5.858-15.355 0-21.213s15.355-5.858 21.213 0l124.394 124.394v-14.17c0-8.284 6.716-15 15-15s15 6.716 15 15v50.383c0 8.284-6.716 15-15 15z" fill="#ff8e9e"/></svg>