<svg id="Capa_1" enable-background="new 0 0 512 512" height="512" viewBox="0 0 512 512" width="512" xmlns="http://www.w3.org/2000/svg"><g><ellipse cx="256" cy="256" fill="#f6ee86" rx="256" ry="250.445"/><path d="m427.868 441.615c-355.426 21.699-386.312-253.396-241.631-426.649-107.482 29.711-186.237 126.374-186.237 241.034 0 138.317 114.615 250.445 256 250.445 66.146 0 126.436-24.545 171.868-64.83z" fill="#eed076"/><g><g><g><g><ellipse cx="109.637" cy="306.295" fill="#e7889d" rx="54.005" ry="43.007"/></g><g><ellipse cx="402.362" cy="306.295" fill="#e7889d" rx="54.005" ry="43.007"/></g></g></g><g fill="#4e5660"><path d="m304.744 325.408c-2.373 0-4.706-1.122-6.163-3.217-10.875-15.631-26.396-24.597-42.581-24.597s-31.706 8.965-42.581 24.597c-2.364 3.4-7.036 4.24-10.439 1.874-3.4-2.366-4.239-7.04-1.873-10.44 13.72-19.72 33.728-31.03 54.894-31.03s41.174 11.31 54.894 31.03c2.366 3.4 1.527 8.074-1.873 10.44-1.306.907-2.8 1.343-4.278 1.343z"/><path d="m137.102 275.638c-14.181 0-27.667-6.143-37.001-16.853-2.722-3.123-2.396-7.86.727-10.582 3.122-2.722 7.859-2.397 10.582.726 6.484 7.44 15.849 11.708 25.692 11.708 9.844 0 19.208-4.268 25.692-11.708 2.722-3.123 7.46-3.448 10.582-.726 3.123 2.721 3.448 7.459.727 10.582-9.333 10.71-22.82 16.853-37.001 16.853z"/><path d="m374.897 275.638c-14.181 0-27.667-6.143-37.001-16.853-2.722-3.123-2.397-7.86.726-10.582 3.121-2.722 7.859-2.397 10.582.726 6.484 7.44 15.849 11.708 25.692 11.708 9.844 0 19.208-4.268 25.692-11.708 2.722-3.123 7.46-3.448 10.582-.726 3.123 2.721 3.448 7.459.727 10.582-9.332 10.71-22.819 16.853-37 16.853z"/></g></g><path d="m422.545 222.052c-1.919 0-3.839-.732-5.303-2.196-4.974-4.973-29.128-22.09-42.678-25.251-4.034-.941-6.541-4.974-5.6-9.008s4.974-6.541 9.008-5.6c17.649 4.118 43.97 23.347 49.875 29.251 2.93 2.929 2.93 7.678.001 10.607-1.464 1.465-3.384 2.197-5.303 2.197z" fill="#eed076"/><path d="m89.455 222.052c-1.92 0-3.839-.732-5.304-2.197-2.929-2.929-2.929-7.678.001-10.607 5.905-5.904 32.226-25.133 49.875-29.251 4.032-.942 8.066 1.565 9.008 5.6.941 4.034-1.566 8.067-5.6 9.008-13.55 3.162-37.704 20.278-42.678 25.251-1.463 1.464-3.383 2.196-5.302 2.196z" fill="#eed076"/><path d="m45.532 418.31c0-32.072 30.481-65.275 50.094-95.165 5.248-7.998 16.981-7.998 22.228 0 19.612 29.89 50.094 63.093 50.094 95.165 0 33.804-27.404 61.208-61.208 61.208s-61.208-27.404-61.208-61.208z" fill="#a2ddfd"/><path d="m162.027 444.589c-72.186 12.315-95.099-47.842-92.577-84.165-12.984 19.065-23.919 38.677-23.919 57.886 0 33.804 27.404 61.208 61.208 61.208 24.397-.001 45.454-14.277 55.288-34.929z" fill="#7acdf9"/></g></svg>