<svg id="Capa_1" enable-background="new 0 0 497 497" height="512" viewBox="0 0 497 497" width="512" xmlns="http://www.w3.org/2000/svg"><g><g><path d="m455.516 125.321c-3.231-14.891-10.162-26.907-19.313-35.958-7.52-7.436-11.871-17.456-12.409-27.972-.038-.737-.059-1.477-.059-2.218v-28.69c0-16.271-12.757-30.025-29.022-30.471-16.875-.463-30.701 13.079-30.701 29.85v15.738c0 14.226-7.059 27.535-18.866 35.472-11.528 7.75-21.13 19.272-26.936 34.697-20.138 53.493-51.564 102.732-92.893 144.062-41.33 41.33-90.568 72.755-144.062 92.893-33.457 12.595-48.544 43.041-46.568 72.27 1.984 29.349 21.172 57.472 56.255 65.066 42.605 9.223 87.443 9.426 131.628-.433 116.035-25.89 206.654-116.509 232.545-232.545 9.867-44.23 9.653-89.116.401-131.761z" fill="#ffce71"/><path d="m423.794 61.391c-.038-.737-.059-1.477-.059-2.218v-15.049-13.641c0-16.271-12.757-30.025-29.022-30.471-16.875-.463-30.701 13.079-30.701 29.85v14.549 1.189c0 14.226-7.059 27.535-18.866 35.472-11.528 7.75-21.13 19.272-26.936 34.697-20.138 53.493-51.564 102.732-92.893 144.062-41.33 41.33-90.568 72.755-144.062 92.893-33.457 12.595-48.544 43.041-46.568 72.27 101.733 9.68 202.717-24.88 277.188-94.87 73.973-69.524 114.669-167.324 111.919-268.733z" fill="#ffb357"/></g><path d="m423.735 44.124v-13.641c0-16.271-12.757-30.025-29.022-30.471-16.875-.463-30.701 13.079-30.701 29.85v14.549c19.618 4.944 40.172 4.846 59.723-.287z" fill="#00c084"/><g><g><g><ellipse cx="279.103" cy="251.954" fill="#ff8e9e" rx="21.9" ry="27.5" transform="matrix(.5 -.866 .866 .5 -78.646 367.688)"/></g><g><ellipse cx="396.366" cy="319.655" fill="#ff8e9e" rx="21.9" ry="27.5" transform="matrix(.5 -.866 .866 .5 -78.648 503.088)"/></g></g></g><g fill="#313d40"><path d="m312.575 224.483c-3.587-2.072-8.174-.842-10.245 2.745l-6 10.393c-2.071 3.587-.842 8.174 2.745 10.245 1.181.682 2.471 1.006 3.743 1.006 2.592 0 5.113-1.346 6.502-3.751l6-10.393c2.072-3.587.842-8.174-2.745-10.245z"/><path d="m403.419 276.932c-3.587-2.072-8.174-.842-10.245 2.745l-6 10.393c-2.071 3.587-.842 8.174 2.745 10.245 1.181.682 2.471 1.006 3.743 1.006 2.592 0 5.113-1.346 6.502-3.751l6-10.393c2.071-3.587.842-8.174-2.745-10.245z"/><path d="m360.251 268.424c-3.929 1.348-8.24.933-11.826-1.137s-6.1-5.596-6.897-9.673c-.795-4.065-4.739-6.714-8.8-5.92-4.065.795-6.716 4.735-5.92 8.8 1.63 8.333 6.776 15.544 14.119 19.783 4.504 2.601 9.564 3.926 14.657 3.926 3.208 0 6.43-.526 9.534-1.591 3.918-1.343 6.005-5.609 4.661-9.527s-5.607-6.003-9.528-4.661z"/></g></g></svg>