<svg height="512pt" viewBox="-5 0 512 512" width="512pt" xmlns="http://www.w3.org/2000/svg"><path d="m498.574219 264.617188c0 136.625-110.757813 247.382812-247.386719 247.382812-136.625 0-247.382812-110.757812-247.382812-247.382812 0-136.628907 110.757812-247.386719 247.382812-247.386719 136.628906 0 247.386719 110.757812 247.386719 247.386719zm0 0" fill="#ffe176"/><path d="m45.011719 264.617188c0-129.6875 99.796875-236.054688 226.78125-246.523438-6.796875-.5625-13.664063-.863281-20.605469-.863281-136.625 0-247.382812 110.757812-247.382812 247.386719 0 136.625 110.757812 247.382812 247.382812 247.382812 6.941406 0 13.808594-.300781 20.605469-.859375-126.984375-10.472656-226.78125-116.835937-226.78125-246.523437zm0 0" fill="#ffc261"/><path d="m139.417969 250.210938c-4.269531 0-7.726563-3.457032-7.726563-7.726563v-27.792969c0-4.265625 3.457032-7.726562 7.726563-7.726562 4.265625 0 7.726562 3.460937 7.726562 7.726562v27.792969c0 4.269531-3.460937 7.726563-7.726562 7.726563zm0 0" fill="#4b3f4e"/><path d="m136.195312 288.511719h-30.464843c-4.265625 0-7.726563-3.457031-7.726563-7.722657 0-4.269531 3.460938-7.726562 7.726563-7.726562h30.464843c4.265626 0 7.726563 3.457031 7.726563 7.726562 0 4.265626-3.460937 7.722657-7.726563 7.722657zm0 0" fill="#ff8eb3"/><path d="m362.960938 250.210938c-4.265626 0-7.726563-3.457032-7.726563-7.726563v-27.792969c0-4.265625 3.460937-7.726562 7.726563-7.726562 4.269531 0 7.726562 3.460937 7.726562 7.726562v27.792969c0 4.269531-3.457031 7.726563-7.726562 7.726563zm0 0" fill="#4b3f4e"/><path d="m396.644531 288.511719h-30.460937c-4.269532 0-7.726563-3.457031-7.726563-7.722657 0-4.269531 3.457031-7.726562 7.726563-7.726562h30.460937c4.269531 0 7.726563 3.457031 7.726563 7.726562 0 4.265626-3.457032 7.722657-7.726563 7.722657zm0 0" fill="#ff8eb3"/><path d="m305.917969 364.96875c1.421875-1.234375 2.792969-2.515625 4.117187-3.839844 15.066406-15.058594 24.378906-35.867187 24.378906-58.847656 0-4.839844-1.964843-9.234375-5.144531-12.40625-3.171875-3.179688-7.566406-5.144531-12.410156-5.144531h-15.378906l-50.292969 16.171875-50.289062-16.171875h-15.382813c-9.695313 0-17.554687 7.859375-17.554687 17.550781 0 22.980469 9.316406 43.789062 24.382812 58.84375 1.324219 1.328125 2.691406 2.605469 4.113281 3.84375zm0 0" fill="#4b3f4e"/><path d="m305.917969 364.96875c-14.621094 12.800781-33.769531 20.539062-54.730469 20.539062s-40.109375-7.738281-54.730469-20.539062c10.691407-12.980469 31.195313-21.761719 54.730469-21.761719s44.039062 8.78125 54.730469 21.761719zm0 0" fill="#f55d67"/><path d="m301.480469 284.730469v13.558593c0 10.375-8.414063 18.789063-18.792969 18.789063h-63c-10.378906 0-18.792969-8.414063-18.792969-18.789063v-13.558593zm0 0" fill="#eceaec"/><g fill="#ffff7f"><path d="m33.277344 86.253906c-2.726563 12.949219-12.085938 22.492188-25.347656 25.234375-4.628907.957031-7.929688 5.0625-7.929688 9.890625v.53125c0 4.742188 3.328125 8.828125 7.972656 9.792969 13.234375 2.757813 22.574219 12.289063 25.300782 25.214844.984374 4.652343 4.929687 8.070312 9.808593 8.070312h.632813c4.726562 0 8.828125-3.300781 9.785156-7.929687 2.742188-13.257813 12.285156-22.613282 25.222656-25.34375 4.652344-.984375 8.070313-4.929688 8.070313-9.683594v-.878906c0-4.753906-3.417969-8.699219-8.070313-9.683594-12.9375-2.730469-22.480468-12.085938-25.222656-25.34375-.957031-4.628906-5.058594-7.929688-9.90625-7.929688h-.636719c-4.746093 0-8.699219 3.414063-9.679687 8.058594zm0 0"/><path d="m443.574219 86.660156c-2.984375 14.160156-13.214844 24.597656-27.71875 27.597656-5.058594 1.046876-8.671875 5.535157-8.671875 10.8125v.585938c0 5.183594 3.640625 9.652344 8.71875 10.710938 14.472656 3.011718 24.683594 13.4375 27.671875 27.574218 1.070312 5.082032 5.390625 8.824219 10.722656 8.824219h.691406c5.167969 0 9.65625-3.609375 10.703125-8.671875 2.996094-14.5 13.429688-24.730469 27.582032-27.71875 5.085937-1.070312 8.824218-5.390625 8.824218-10.585938v-.960937c0-5.199219-3.738281-9.515625-8.824218-10.589844-14.152344-2.988281-24.582032-13.214843-27.582032-27.71875-1.046875-5.058593-5.535156-8.667969-10.835937-8.667969h-.695313c-5.191406 0-9.515625 3.730469-10.585937 8.808594zm0 0"/><path d="m371.5 6.714844c-2.273438 10.789062-10.070312 18.742187-21.121094 21.027344-3.855468.796874-6.609375 4.214843-6.609375 8.238281v.445312c0 3.949219 2.777344 7.355469 6.644531 8.160157 11.027344 2.296874 18.808594 10.242187 21.082032 21.011718.820312 3.875 4.109375 6.722656 8.171875 6.722656h.53125c3.9375 0 7.355469-2.75 8.152343-6.605468 2.285157-11.046875 10.234376-18.84375 21.015626-21.121094 3.875-.816406 6.726562-4.109375 6.726562-8.066406v-.734375c0-3.960938-2.851562-7.25-6.726562-8.066407-10.78125-2.277343-18.730469-10.074218-21.015626-21.121093-.796874-3.855469-4.214843-6.605469-8.257812-6.605469h-.527344c-3.957031 0-7.25 2.84375-8.066406 6.714844zm0 0"/></g></svg>