<?xml version="1.0" encoding="UTF-8" standalone="no"?>
<!-- Generator: Adobe Illustrator 19.0.0, SVG Export Plug-In . SVG Version: 6.00 Build 0)  -->

<svg
   xmlns:dc="http://purl.org/dc/elements/1.1/"
   xmlns:cc="http://creativecommons.org/ns#"
   xmlns:rdf="http://www.w3.org/1999/02/22-rdf-syntax-ns#"
   xmlns:svg="http://www.w3.org/2000/svg"
   xmlns="http://www.w3.org/2000/svg"
   xmlns:sodipodi="http://sodipodi.sourceforge.net/DTD/sodipodi-0.dtd"
   xmlns:inkscape="http://www.inkscape.org/namespaces/inkscape"
   version="1.1"
   id="Capa_1"
   x="0px"
   y="0px"
   viewBox="0 0 512 512"
   style="enable-background:new 0 0 512 512;"
   xml:space="preserve"
   sodipodi:docname="learning-kitty.svg"
   inkscape:version="0.92.1 r15371"><metadata
     id="metadata4775"><rdf:RDF><cc:Work
         rdf:about=""><dc:format>image/svg+xml</dc:format><dc:type
           rdf:resource="http://purl.org/dc/dcmitype/StillImage" /></cc:Work></rdf:RDF></metadata><defs
     id="defs4773" /><sodipodi:namedview
     pagecolor="#ffffff"
     bordercolor="#666666"
     borderopacity="1"
     objecttolerance="10"
     gridtolerance="10"
     guidetolerance="10"
     inkscape:pageopacity="0"
     inkscape:pageshadow="2"
     inkscape:window-width="1830"
     inkscape:window-height="1057"
     id="namedview4771"
     showgrid="false"
     inkscape:zoom="0.65186406"
     inkscape:cx="-49.694604"
     inkscape:cy="277.84665"
     inkscape:window-x="2002"
     inkscape:window-y="-8"
     inkscape:window-maximized="1"
     inkscape:current-layer="Capa_1" /><path
     style="fill:#bd4568"
     d="M 339.768,511.91557 H 49.839 c -9.317,0 -16.869,-7.553 -16.869,-16.869 v -47.672 c 0,-9.317 7.553,-16.869 16.869,-16.869 h 289.929 c 9.317,0 16.869,7.553 16.869,16.869 v 47.672 c 0,9.316 -7.553,16.869 -16.869,16.869 z"
     id="path4660"
     inkscape:connector-curvature="0" /><rect
     x="78.540001"
     y="430.50558"
     style="opacity:0.1;enable-background:new"
     width="34.867001"
     height="81.410004"
     id="rect4662" /><path
     style="fill:#eda751"
     d="m 13.361,451.12757 c -3.599,0 -7.188,-1.446 -9.821,-4.301 -5.002,-5.423 -4.662,-13.874 0.761,-18.876 28.207,-26.022 54.153,-29.808 95.739,-13.965 22.567,8.593 36.91,-6.345 57.846,-31.974 4.668,-5.714 13.083,-6.559 18.797,-1.894 5.714,4.667 6.561,13.083 1.894,18.797 -15.744,19.271 -36.227,44.34 -66.054,44.343 -6.825,0 -14.135,-1.312 -21.994,-4.305 -35.577,-13.554 -49.766,-8.29 -68.113,8.635 -2.568,2.369 -5.816,3.54 -9.055,3.54 z"
     id="path4664"
     inkscape:connector-curvature="0" /><path
     style="fill:#fcd79d"
     d="m 12.189,421.21657 c -2.619,2.051 -5.244,4.295 -7.888,6.734 -5.423,5.002 -5.763,13.453 -0.761,18.876 2.633,2.855 6.222,4.301 9.821,4.301 3.238,0 6.487,-1.171 9.055,-3.54 2.543,-2.346 5.006,-4.459 7.457,-6.338 -3.206,-9.015 -10.235,-16.932 -17.684,-20.033 z"
     id="path4666"
     inkscape:connector-curvature="0" /><path
     style="opacity:0.2;fill:#c18f00;enable-background:new"
     d="m 176.682,380.11757 c -5.714,-4.665 -14.129,-3.82 -18.797,1.894 -17.612,21.56 -30.559,35.55 -47.661,34.335 5.055,8.878 11.345,17.043 18.659,24.286 21.244,-6.913 37.008,-26.192 49.692,-41.718 4.668,-5.714 3.821,-14.13 -1.893,-18.797 z"
     id="path4668"
     inkscape:connector-curvature="0" /><ellipse
     style="fill:#fcd690"
     cx="210.82001"
     cy="363.80557"
     rx="98.580002"
     ry="91.599998"
     id="ellipse4670" /><path
     style="opacity:0.15;fill:#c17a00;enable-background:new"
     d="m 196.421,454.43357 c -45.049,-29.576 -31.087,-90.194 -23.44,-116.704 v -58.534 c -35.666,13.788 -60.745,46.475 -60.745,84.609 -0.001,46.047 36.564,84.153 84.185,90.629 z"
     id="path4672"
     inkscape:connector-curvature="0" /><path
     style="fill:#eda751"
     d="m 150.824,204.96357 c 19.29,-16.186 32.169,-43.358 4.961,-83.526 C 128.361,80.952541 87.531,70.804541 55.655,74.559541 c -7.859,0.926 -14.452,6.459 -16.729,14.037 -9.233,30.739029 -6.329,72.711029 28.779,106.748029 34.833,33.771 63.829,25.806 83.119,9.619 z"
     id="path4674"
     inkscape:connector-curvature="0" /><path
     style="fill:#ff91ab"
     d="m 37.643,93.300541 c -7.57,30.224029 -3.29,69.711029 30.061,102.044029 30.192,29.271 55.993,27.18 74.896,15.564 -13,-88.25 -69.788,-111.652023 -104.957,-117.608029 z"
     id="path4676"
     inkscape:connector-curvature="0" /><path
     style="fill:#eda751"
     d="m 270.809,204.96357 c -19.29,-16.186 -32.169,-43.358 -4.961,-83.526 27.424,-40.485029 68.253,-50.633029 100.129,-46.878029 7.859,0.926 14.452,6.459 16.729,14.037 9.233,30.739029 6.329,72.711029 -28.779,106.748029 -34.832,33.771 -63.828,25.806 -83.118,9.619 z"
     id="path4678"
     inkscape:connector-curvature="0" /><path
     style="fill:#ff91ab"
     d="m 383.989,93.300541 c 7.57,30.224029 3.29,69.711029 -30.062,102.044029 -30.192,29.271 -55.993,27.18 -74.895,15.564 13,-88.25 69.789,-111.652023 104.957,-117.608029 z"
     id="path4680"
     inkscape:connector-curvature="0" /><path
     style="fill:#ffdc9c"
     d="m 378.649,229.39457 c 0,76.738 -75.141,110.348 -167.833,110.348 -92.692,0 -167.832,-33.61 -167.832,-110.348 0,-76.738 75.141,-138.946029 167.833,-138.946029 92.692,0 167.832,62.208029 167.832,138.946029 z"
     id="path4682"
     inkscape:connector-curvature="0" /><path
     style="opacity:0.15;fill:#c17a00;enable-background:new"
     d="m 121.202,111.90057 c -47.003,24.623 -78.218,68.038 -78.218,117.493 0,65.966 55.527,100.062 129.997,108.335 -106.899,-63.853 -92.958,-149.743 -51.779,-225.828 z"
     id="path4684"
     inkscape:connector-curvature="0" /><g
     id="g4690"
     transform="translate(0,36.875541)"><ellipse
       style="fill:#ff91ab"
       cx="144.12"
       cy="195.53"
       rx="30.388"
       ry="24.200001"
       id="ellipse4686" /><ellipse
       style="fill:#ff91ab"
       cx="308.82999"
       cy="195.53"
       rx="30.388"
       ry="24.200001"
       id="ellipse4688" /></g><g
     id="g4706"
     transform="translate(0,36.875541)"><path
       style="fill:#495059"
       d="m 161.832,178.89 c -4.142,0 -7.5,-3.357 -7.5,-7.5 v -10.731 c 0,-4.143 3.358,-7.5 7.5,-7.5 4.143,0 7.5,3.357 7.5,7.5 v 10.731 c 0,4.142 -3.357,7.5 -7.5,7.5 z"
       id="path4692"
       inkscape:connector-curvature="0" /><path
       style="fill:#495059"
       d="m 291.125,178.89 c -4.143,0 -7.5,-3.357 -7.5,-7.5 v -10.731 c 0,-4.143 3.357,-7.5 7.5,-7.5 4.143,0 7.5,3.357 7.5,7.5 v 10.731 c 0,4.142 -3.357,7.5 -7.5,7.5 z"
       id="path4694"
       inkscape:connector-curvature="0" /><path
       style="fill:#495059"
       d="m 226.479,187.13 c -8.699,0 -16.972,-3.768 -22.697,-10.337 -2.722,-3.122 -2.398,-7.859 0.725,-10.581 3.122,-2.723 7.859,-2.397 10.581,0.726 2.877,3.3 7.028,5.192 11.391,5.192 4.362,0 8.514,-1.893 11.391,-5.192 2.721,-3.124 7.459,-3.448 10.581,-0.726 3.123,2.722 3.447,7.459 0.726,10.581 -5.727,6.569 -13.999,10.337 -22.698,10.337 z"
       id="path4696"
       inkscape:connector-curvature="0" /><path
       style="fill:#495059"
       d="m 101.272,200.21 c -3.36,0 -6.418,-2.275 -7.271,-5.683 -1.004,-4.018 1.438,-8.091 5.457,-9.096 8.427,-2.107 28.509,-3.607 38.295,-2.313 4.106,0.543 6.996,4.311 6.453,8.418 -0.543,4.108 -4.325,6.993 -8.418,6.453 -7.65,-1.013 -26.017,0.326 -32.691,1.995 -0.611,0.153 -1.223,0.226 -1.825,0.226 z"
       id="path4698"
       inkscape:connector-curvature="0" /><path
       style="fill:#495059"
       d="m 110.952,236.216 c -2.3,0 -4.568,-1.053 -6.039,-3.045 -2.461,-3.333 -1.754,-8.028 1.578,-10.488 6.986,-5.158 24.983,-14.199 34.524,-16.732 4.003,-1.06 8.111,1.321 9.174,5.324 1.063,4.004 -1.321,8.11 -5.324,9.174 -7.46,1.98 -23.93,10.215 -29.464,14.301 -1.34,0.989 -2.901,1.466 -4.449,1.466 z"
       id="path4700"
       inkscape:connector-curvature="0" /><path
       style="fill:#495059"
       d="m 351.686,200.21 c -0.603,0 -1.214,-0.073 -1.825,-0.226 -6.675,-1.669 -25.038,-3.009 -32.691,-1.995 -4.096,0.539 -7.875,-2.345 -8.418,-6.453 -0.543,-4.106 2.347,-7.875 6.453,-8.418 9.785,-1.292 29.869,0.207 38.295,2.313 4.019,1.005 6.461,5.077 5.457,9.096 -0.853,3.408 -3.911,5.683 -7.271,5.683 z"
       id="path4702"
       inkscape:connector-curvature="0" /><path
       style="fill:#495059"
       d="m 342.005,236.216 c -1.548,0 -3.108,-0.477 -4.449,-1.467 -5.534,-4.086 -22.004,-12.32 -29.464,-14.301 -4.003,-1.063 -6.387,-5.17 -5.324,-9.174 1.063,-4.004 5.17,-6.386 9.174,-5.324 9.541,2.533 27.538,11.574 34.524,16.732 3.332,2.46 4.039,7.155 1.578,10.488 -1.47,1.992 -3.74,3.046 -6.039,3.046 z"
       id="path4704"
       inkscape:connector-curvature="0" /></g><path
     id="SVGCleanerId_0"
     style="fill:#dee2e5"
     d="m 348.836,298.93557 c -3.476,-29.073 -119.819,-48.635 -157.892,0 v 165.465 h 157.892 z"
     inkscape:connector-curvature="0" /><g
     id="g4710"
     transform="translate(0,36.875541)"><path
       id="SVGCleanerId_0_1_"
       style="fill:#dee2e5"
       d="m 348.836,262.06 c -3.476,-29.073 -119.819,-48.635 -157.892,0 v 165.465 h 157.892 z"
       inkscape:connector-curvature="0" /></g><path
     style="fill:#dee2e5"
     d="m 348.837,298.93557 c 3.01,-29.074 103.761,-48.635 136.731,0 v 165.465 H 348.837 Z"
     id="path4712"
     inkscape:connector-curvature="0" /><g
     id="g4720"
     transform="translate(0,36.875541)"><path
       style="fill:#78cfc0"
       d="M 316.196,475.04 H 185.674 c -12.152,0 -22.003,-9.851 -22.003,-22.003 V 284.063 c 0,-12.152 9.851,-22.003 22.003,-22.003 h 130.521 v 212.98 z"
       id="path4714"
       inkscape:connector-curvature="0" /><path
       style="fill:#78cfc0"
       d="M 489.997,475.04 H 381.477 V 262.06 h 108.52 c 12.152,0 22.003,9.851 22.003,22.003 v 168.975 c 0,12.151 -9.851,22.002 -22.003,22.002 z"
       id="path4716"
       inkscape:connector-curvature="0" /><rect
       x="316.20001"
       y="262.06"
       style="fill:#78cfc0"
       width="65.279999"
       height="212.98"
       id="rect4718" /></g><rect
     x="316.20001"
     y="298.93558"
     style="opacity:0.1;enable-background:new"
     width="65.279999"
     height="212.98"
     id="rect4722" /><path
     style="fill:#ffffff"
     d="m 213.801,480.80757 h 52.266 c 3.192,0 5.779,-2.587 5.779,-5.779 v -18.11 c 0,-3.192 -2.587,-5.779 -5.779,-5.779 h -52.266 c -3.192,0 -5.779,2.587 -5.779,5.779 v 18.11 c -0.001,3.191 2.587,5.779 5.779,5.779 z"
     id="path4724"
     inkscape:connector-curvature="0" /><path
     style="fill:#eda751"
     d="m 176.193,416.43757 c -28.1,3.27 -60.745,-8.902 -77.129,-41.917 -5.247,-10.574 -0.929,-23.399 9.645,-28.647 10.572,-5.249 23.399,-0.93 28.647,9.645 9.68,19.509 29.91,20.762 40.386,16.969 11.108,-4.015 23.355,1.723 27.373,12.821 4.018,11.1 -1.722,23.355 -12.821,27.373 -5.075,1.837 -10.501,3.104 -16.101,3.756 z"
     id="path4726"
     inkscape:connector-curvature="0" /><g
     id="g4732"
     transform="translate(0,36.875541)"><path
       style="fill:#f5d141"
       d="m 348.836,398.034 c -4.142,0 -7.5,-3.357 -7.5,-7.5 v -66.23 c 0,-4.143 3.358,-7.5 7.5,-7.5 4.143,0 7.5,3.357 7.5,7.5 v 66.23 c 0,4.143 -3.357,7.5 -7.5,7.5 z"
       id="path4728"
       inkscape:connector-curvature="0" /><path
       style="fill:#f5d141"
       d="m 348.836,446.883 c -4.142,0 -7.5,-3.357 -7.5,-7.5 v -15.439 c 0,-4.143 3.358,-7.5 7.5,-7.5 4.143,0 7.5,3.357 7.5,7.5 v 15.439 c 0,4.142 -3.357,7.5 -7.5,7.5 z"
       id="path4730"
       inkscape:connector-curvature="0" /></g><g
     style="opacity:0.1"
     id="g4738"
     transform="translate(0,36.875541)"><path
       d="m 479.251,446.883 h -65.024 c -4.143,0 -7.5,-3.357 -7.5,-7.5 0,-4.143 3.357,-7.5 7.5,-7.5 h 65.024 c 4.143,0 7.5,3.357 7.5,7.5 0,4.143 -3.357,7.5 -7.5,7.5 z"
       id="path4734"
       inkscape:connector-curvature="0" /><path
       d="m 466.224,421.752 h -38.97 c -4.143,0 -7.5,-3.357 -7.5,-7.5 0,-4.143 3.357,-7.5 7.5,-7.5 h 38.97 c 4.143,0 7.5,3.357 7.5,7.5 0,4.143 -3.358,7.5 -7.5,7.5 z"
       id="path4736"
       inkscape:connector-curvature="0" /></g><g
     id="g4740" /><g
     id="g4742" /><g
     id="g4744" /><g
     id="g4746" /><g
     id="g4748" /><g
     id="g4750" /><g
     id="g4752" /><g
     id="g4754" /><g
     id="g4756" /><g
     id="g4758" /><g
     id="g4760" /><g
     id="g4762" /><g
     id="g4764" /><g
     id="g4766" /><g
     id="g4768" /></svg>